<svg width="900" height="600" viewBox="0 0 900 600" fill="none" xmlns="http://www.w3.org/2000/svg">
<g clip-path="url(#clip0_74_80)">
<path d="M150 450H0V599H150V450Z" fill="#5D6E7A" fill-opacity="0.05"/>
<path d="M900 450H750V599H900V450Z" fill="#5D6E7A" fill-opacity="0.05"/>
<path d="M300 150H150V300H300V150Z" fill="#5D6E7A" fill-opacity="0.3"/>
<path d="M750 301H599V450H750V301Z" fill="#5D6E7A" fill-opacity="0.22"/>
<path d="M599 450H450V600H599V450Z" fill="#5D6E7A" fill-opacity="0.05"/>
<path d="M900 151H750V300H900V151Z" fill="#5D6E7A" fill-opacity="0.1"/>
<path d="M450 0H300V150H450V0Z" fill="#5D6E7A" fill-opacity="0.1"/>
<path fill-rule="evenodd" clip-rule="evenodd" d="M363.85 205L379.167 383.204L447.897 403L516.819 383.181L532.15 205.003L363.85 205ZM500.201 247.291L499.242 258.37L498.819 263.281H498.753H448H447.928H418.194L420.119 285.663H447.925H448H491.224H496.903L496.389 291.534L491.437 349.079L491.121 352.768L448 365.164L447.902 365.197L404.744 352.768L401.794 318.448H411.541H422.942L424.442 335.884L447.905 342.454L447.925 342.448L471.426 335.866L473.871 307.521H448H447.928H400.849L395.673 247.291L395.17 241.423H447.928H448H500.707L500.201 247.291Z" fill="#5D6E7A"/>
<path d="M856.168 218.085L831.615 193.534C830.959 192.879 830.053 192.474 829.052 192.474C828.051 192.474 827.145 192.879 826.489 193.534L821.402 198.63L827.869 205.097C828.281 204.952 828.756 204.87 829.251 204.87C831.63 204.87 833.557 206.797 833.557 209.177C833.557 209.681 833.471 210.163 833.312 210.613L833.321 210.583L839.55 216.815C839.966 216.667 840.448 216.581 840.949 216.581C843.326 216.581 845.254 218.509 845.254 220.886C845.254 223.264 843.326 225.191 840.949 225.191C838.571 225.191 836.644 223.264 836.644 220.886C836.644 220.299 836.762 219.74 836.974 219.23L836.962 219.259L831.131 213.457V228.746C832.564 229.468 833.529 230.927 833.529 232.61C833.529 234.992 831.598 236.923 829.217 236.923C826.836 236.923 824.904 234.992 824.904 232.61C824.904 231.422 825.384 230.347 826.162 229.567C826.558 229.172 827.029 228.851 827.552 228.626L827.58 228.615V213.176C826.001 212.512 824.914 210.977 824.914 209.19C824.914 208.59 825.036 208.02 825.257 207.5L825.246 207.529L818.891 201.144L802.054 217.97C801.401 218.629 801 219.534 801 220.535C801 221.537 801.403 222.442 802.056 223.1L826.611 247.648C827.265 248.304 828.171 248.709 829.172 248.709C830.173 248.709 831.077 248.304 831.733 247.648L856.172 223.209C856.828 222.555 857.235 221.647 857.235 220.648C857.235 219.649 856.828 218.741 856.172 218.087L856.168 218.085Z" fill="#5D6E7A"/>
<path d="M671.624 388.948C672.724 389.004 673.849 389.044 674.987 389.044C676.137 389.044 677.274 389.017 678.388 388.948C677.274 390.565 676.173 391.996 675.009 393.359L675.025 393.341C673.867 391.993 672.754 390.56 671.706 389.069L671.624 388.948ZM660.225 387.151C662.391 387.769 665.034 388.294 667.731 388.618L667.993 388.642C669.643 391.187 671.312 393.426 673.102 395.533L673.08 395.506C670.458 398.792 666.919 401.101 662.915 401.93L662.805 401.948C662.797 401.948 662.789 401.948 662.781 401.948C662.285 401.948 661.817 401.811 661.407 401.568L661.423 401.577C659.758 400.51 659.036 396.429 659.598 391.185C659.732 389.893 659.952 388.534 660.223 387.149L660.225 387.151ZM689.799 387.122C690.036 388.186 690.258 389.543 690.416 390.922L690.434 391.115C691.008 396.357 690.3 400.434 688.649 401.523C688.281 401.752 687.841 401.887 687.373 401.887C687.327 401.887 687.281 401.885 687.235 401.883H687.241C683.133 401.04 679.596 398.747 676.98 395.502L676.966 395.484C678.724 393.411 680.381 391.176 681.899 388.824L682.015 388.636C684.968 388.29 687.615 387.755 690.194 387.025L689.799 387.119V387.122ZM662.563 378.74C663.063 379.84 663.588 380.936 664.164 382.037C664.739 383.131 665.326 384.2 665.926 385.244C664.19 384.959 662.513 384.599 660.911 384.161C661.361 382.394 661.925 380.563 662.561 378.735L662.563 378.74ZM687.427 378.683C688.089 380.527 688.651 382.367 689.117 384.15C687.517 384.59 685.826 384.963 684.078 385.244C684.678 384.191 685.278 383.106 685.84 381.994C686.402 380.9 686.929 379.782 687.431 378.681L687.427 378.683ZM658.232 366.67C659.104 369.989 660.041 372.765 661.131 375.442L660.981 375.034C660.049 377.291 659.126 380.051 658.37 382.892L658.266 383.353C656.854 382.866 655.717 382.387 654.611 381.85L654.841 381.949C650.512 379.881 647.711 377.161 647.711 375.004C647.711 372.848 650.512 370.115 654.841 368.055C655.891 367.55 657.044 367.094 658.232 366.67ZM691.72 366.658C692.93 367.078 694.081 367.548 695.157 368.055C699.486 370.133 702.287 372.848 702.287 375.004C702.275 377.161 699.474 379.887 695.145 381.951C694.095 382.457 692.944 382.91 691.758 383.335C690.878 380.004 689.941 377.23 688.855 374.549L689.007 374.971C689.935 372.716 690.86 369.955 691.614 367.114L691.72 366.652V366.658ZM684.062 364.765C685.8 365.055 687.475 365.41 689.077 365.852C688.627 367.626 688.065 369.45 687.427 371.278C686.927 370.185 686.402 369.082 685.826 367.983C685.264 366.883 684.664 365.812 684.064 364.767L684.062 364.765ZM665.912 364.765C665.312 365.823 664.712 366.905 664.152 368.022C663.59 369.115 663.063 370.216 662.563 371.317C661.901 369.475 661.339 367.64 660.873 365.852C662.473 365.432 664.16 365.057 665.91 364.769L665.912 364.765ZM674.999 364.051C676.85 364.051 678.692 364.145 680.505 364.311C681.52 365.945 682.505 367.685 683.462 369.531C684.391 371.328 685.239 373.149 686.006 374.993C685.236 376.833 684.392 378.67 683.474 380.467C682.523 382.32 681.541 384.083 680.523 385.716C678.702 385.893 676.858 385.99 674.997 385.99C673.146 385.99 671.304 385.891 669.491 385.729C668.477 384.096 667.487 382.349 666.534 380.509C665.605 378.713 664.757 376.892 663.99 375.047C664.748 373.203 665.604 371.361 666.522 369.562C667.473 367.709 668.455 365.953 669.473 364.32C671.294 364.141 673.138 364.046 674.999 364.046V364.051ZM674.961 356.682C676.121 358.029 677.234 359.46 678.28 360.951L678.36 361.07C677.26 361.014 676.135 360.976 674.997 360.976C673.847 360.976 672.71 361.003 671.596 361.07C672.708 359.453 673.809 358.022 674.975 356.659L674.959 356.677L674.961 356.682ZM662.755 348.12C666.863 348.964 670.398 351.257 673.016 354.501L673.03 354.519C671.272 356.594 669.615 358.829 668.097 361.185L667.981 361.373C665.03 361.717 662.383 362.247 659.806 362.977L660.199 362.883C659.918 361.508 659.71 360.176 659.564 358.898C658.99 353.656 659.698 349.58 661.349 348.495C661.761 348.277 662.243 348.142 662.751 348.124H662.757L662.755 348.12ZM687.183 348.064V348.082C687.209 348.082 687.239 348.079 687.271 348.079C687.749 348.079 688.199 348.212 688.595 348.445L688.579 348.436C690.244 349.508 690.966 353.587 690.404 358.833C690.27 360.125 690.05 361.486 689.779 362.874C687.609 362.249 684.966 361.722 682.269 361.4L682.013 361.376C680.361 358.829 678.692 356.589 676.902 354.48L676.926 354.507C679.548 351.228 683.081 348.919 687.077 348.086L687.189 348.066L687.183 348.064ZM687.195 345.004C682.309 345.838 678.08 348.502 674.991 352.344L674.975 352.365C671.864 348.524 667.635 345.878 662.869 345.076L662.757 345.061C662.731 345.061 662.699 345.061 662.667 345.061C661.685 345.061 660.763 345.35 659.964 345.858L659.992 345.842C656.555 348.068 655.785 355.004 657.56 363.707C649.949 366.346 645 370.564 645 375.009C645 379.472 649.975 383.701 657.608 386.32C655.847 395.057 656.633 402.004 660.079 404.227C660.835 404.715 661.743 405 662.709 405C662.753 405 662.797 405 662.839 404.998H662.833C667.719 404.164 671.948 401.498 675.037 397.653L675.053 397.633C678.164 401.476 682.393 404.122 687.159 404.924L687.271 404.939C687.301 404.939 687.339 404.939 687.375 404.939C688.351 404.939 689.269 404.652 690.064 404.151L690.036 404.167C693.471 401.943 694.243 395.007 692.468 386.302C700.051 383.685 705 379.458 705 375.007C705 370.544 700.025 366.315 692.392 363.689C694.153 354.961 693.367 348.007 689.921 345.782C689.157 345.29 688.241 345 687.265 345C687.239 345 687.213 345 687.187 345H687.191L687.195 345.004ZM680.575 375.009C680.575 378.475 678.072 381.284 674.985 381.284C671.898 381.284 669.395 378.475 669.395 375.009C669.395 371.543 671.898 368.734 674.985 368.734C676.529 368.734 677.926 369.437 678.938 370.571C679.95 371.707 680.575 373.275 680.575 375.009Z" fill="#5D6E7A"/>
<mask id="mask0_74_80" style="mask-type:luminance" maskUnits="userSpaceOnUse" x="45" y="345" width="60" height="60">
<path d="M105 345H45V405H105V345Z" fill="white"/>
</mask>
<g mask="url(#mask0_74_80)">
<path d="M75.0024 357C67.0024 357 62.0024 361 60.0024 369C63.0024 365 66.5024 363.5 70.5024 364.5C72.7849 365.07 74.4149 366.725 76.2224 368.56C79.1649 371.545 82.5674 375 90.0024 375C98.0024 375 103.002 371 105.002 363C102.002 367 98.5024 368.5 94.5024 367.5C92.2199 366.93 90.5899 365.275 88.7824 363.44C85.8424 360.455 82.4399 357 75.0024 357ZM60.0024 375C52.0024 375 47.0024 379 45.0024 387C48.0024 383 51.5024 381.5 55.5024 382.5C57.7849 383.07 59.4149 384.725 61.2224 386.56C64.1649 389.545 67.5674 393 75.0024 393C83.0024 393 88.0024 389 90.0024 381C87.0024 385 83.5024 386.5 79.5024 385.5C77.2199 384.93 75.5899 383.275 73.7824 381.44C70.8424 378.455 67.4399 375 60.0024 375Z" fill="#5D6E7A"/>
</g>
<mask id="mask1_74_80" style="mask-type:luminance" maskUnits="userSpaceOnUse" x="492" y="497" width="60" height="60">
<path d="M552 497H492V557H552V497Z" fill="white"/>
</mask>
<g mask="url(#mask1_74_80)">
<path d="M520.035 497.016C519.906 497.028 519.496 497.069 519.126 497.098C510.604 497.866 502.622 502.464 497.566 509.53C494.751 513.459 492.95 517.916 492.27 522.637C492.029 524.285 492 524.772 492 527.006C492 529.24 492.029 529.727 492.27 531.375C493.9 542.64 501.918 552.105 512.792 555.612C514.739 556.239 516.792 556.667 519.126 556.925C520.035 557.025 523.965 557.025 524.874 556.925C528.903 556.48 532.317 555.483 535.683 553.764C536.199 553.501 536.299 553.43 536.229 553.372C536.182 553.336 533.982 550.387 531.343 546.821L526.545 540.341L520.534 531.445C517.226 526.554 514.504 522.555 514.481 522.555C514.457 522.549 514.434 526.502 514.422 531.328C514.405 539.778 514.399 540.118 514.293 540.318C514.141 540.605 514.023 540.722 513.777 540.851C513.589 540.945 513.425 540.963 512.54 540.963H511.525L511.255 540.793C511.079 540.681 510.95 540.535 510.862 540.365L510.739 540.101L510.751 528.343L510.768 516.579L510.95 516.351C511.044 516.227 511.243 516.069 511.384 515.993C511.625 515.876 511.718 515.864 512.733 515.864C513.93 515.864 514.129 515.911 514.44 516.251C514.528 516.345 517.783 521.247 521.677 527.152C525.572 533.058 530.897 541.121 533.513 545.079L538.264 552.275L538.504 552.117C540.633 550.733 542.886 548.762 544.669 546.71C548.463 542.353 550.909 537.04 551.73 531.375C551.971 529.727 552 529.24 552 527.006C552 524.772 551.971 524.285 551.73 522.637C550.1 511.372 542.082 501.907 531.208 498.4C529.29 497.778 527.249 497.35 524.962 497.092C524.399 497.034 520.522 496.969 520.035 497.016ZM532.317 515.16C532.598 515.301 532.827 515.571 532.909 515.852C532.956 516.005 532.968 519.265 532.956 526.613L532.938 537.157L531.079 534.307L529.214 531.457V523.792C529.214 518.837 529.238 516.051 529.273 515.917C529.367 515.588 529.572 515.33 529.853 515.178C530.094 515.055 530.182 515.043 531.103 515.043C531.971 515.043 532.123 515.055 532.317 515.16Z" fill="#5D6E7A"/>
</g>
<path d="M247.614 497.059L242.623 551.119L220.999 556.941L199.375 551.119L194.385 497.059H247.614ZM237.557 508.051H220.98H204.109L204.916 514.579H220.98H221.882L220.98 514.955L205.503 521.401L206.016 527.782L220.98 527.831L229 527.856L228.487 536.365L220.98 538.478V538.471L220.918 538.488L213.669 536.658L213.229 531.377H213.205H206.48H206.457L207.337 541.573L220.98 545.608V545.6L221.005 545.608L234.575 541.646L236.335 521.401H220.98H220.942L220.98 521.384L236.898 514.579L237.557 508.051Z" fill="#5D6E7A"/>
<mask id="mask2_74_80" style="mask-type:luminance" maskUnits="userSpaceOnUse" x="645" y="40" width="60" height="60">
<path d="M695 40H655C649.477 40 645 44.4772 645 50V90C645 95.5228 649.477 100 655 100H695C700.523 100 705 95.5228 705 90V50C705 44.4772 700.523 40 695 40Z" fill="white"/>
</mask>
<g mask="url(#mask2_74_80)">
<path fill-rule="evenodd" clip-rule="evenodd" d="M690.984 95.2964C686.982 95.2964 684.062 93.838 682.171 91.6929C681.203 90.5943 681.706 88.9628 682.973 88.2288C684.27 87.4774 685.865 87.982 687.005 88.9547C687.982 89.7874 689.208 90.3013 690.864 90.3013C693.198 90.3013 694.689 89.1335 694.689 87.5225C694.689 85.0985 691.455 84.1513 689.172 83.1733C685.104 81.4423 682.404 79.2673 682.404 74.6743C682.404 70.4473 685.626 67.2256 690.663 67.2256C693.399 67.2256 695.55 67.9533 697.238 69.7496C698.182 70.7535 697.769 72.3173 696.61 73.062C695.351 73.8707 693.774 73.2449 692.454 72.5405C691.935 72.2633 691.35 72.1387 690.663 72.1387C689.01 72.1387 687.963 73.1862 687.963 74.5542C687.963 76.2462 689.01 76.9305 691.428 77.9775C696.495 80.1495 700.329 81.8559 700.329 87.4419C700.329 92.5179 696.342 95.2964 690.984 95.2964ZM678 86.7974C678 92.6384 674.403 95.7256 669.408 95.7256C664.917 95.7256 662.218 94.0158 660.882 91.0413C660.871 91.0164 660.846 91 660.819 91H660.798C660.794 91 660.793 90.9953 660.796 90.9931L664.192 88.6192C664.825 88.1767 665.678 88.3935 666.14 89.0128C666.807 89.9083 667.609 90.4756 668.988 90.4756C670.842 90.4756 672 89.5367 672 86.7197V70C672 68.3431 673.343 67 675 67C676.657 67 678 68.3431 678 70V86.7974ZM645 90C645 95.5228 649.477 100 655 100H695C700.523 100 705 95.5228 705 90V50C705 44.4772 700.523 40 695 40H655C649.477 40 645 44.4772 645 50V90Z" fill="#5D6E7A"/>
</g>
<mask id="mask3_74_80" style="mask-type:luminance" maskUnits="userSpaceOnUse" x="801" y="497" width="60" height="60">
<path d="M861 497H801V557H861V497Z" fill="white"/>
</mask>
<g mask="url(#mask3_74_80)">
<path d="M847.282 514.01L847.845 513.159L848.827 513.755L849.262 514.066C850.312 514.876 852.521 516.946 852.997 520.381C853.834 520.231 854.677 520.156 855.521 520.156C857.524 520.156 858.87 520.621 859.635 521.007L860.029 521.221L860.284 521.39L861 521.975L860.752 522.725C860.368 523.753 859.767 524.687 858.99 525.463C857.902 526.584 855.99 527.908 852.956 528.08L852.289 528.099H851.734C850.346 531.763 848.482 535.891 845.351 539.596C843.493 541.798 841.289 543.683 838.826 545.176C835.873 546.928 832.639 548.156 829.267 548.806C826.852 549.275 824.4 549.507 821.944 549.5C816.506 549.5 811.706 548.42 808.755 546.53C806.119 544.846 804.094 542.097 802.732 538.366C801.541 534.957 800.956 531.365 801.004 527.754C800.997 527.291 801.158 526.841 801.455 526.486C801.752 526.131 802.167 525.894 802.624 525.819L802.879 525.8H842.404L842.749 525.774L843.307 525.714C844.267 525.586 845.73 525.301 846.757 524.701C845.527 522.665 845.179 520.284 845.752 517.749C845.993 516.691 846.371 515.67 846.877 514.711L847.282 514.01ZM811.837 518.69L811.987 518.716C812.056 518.742 812.118 518.783 812.168 518.836C812.218 518.89 812.255 518.954 812.276 519.024L812.299 519.174V524.105L812.276 524.259C812.255 524.329 812.217 524.394 812.166 524.447C812.115 524.5 812.053 524.541 811.984 524.566L811.837 524.589H806.542C806.444 524.587 806.348 524.555 806.269 524.495C806.19 524.436 806.132 524.353 806.104 524.259L806.077 524.109V519.17L806.104 519.02C806.125 518.949 806.162 518.884 806.213 518.83C806.264 518.776 806.327 518.734 806.396 518.709L806.542 518.686L811.837 518.69ZM819.139 518.69L819.285 518.716C819.354 518.741 819.417 518.782 819.467 518.836C819.518 518.889 819.556 518.953 819.577 519.024L819.6 519.174V524.105L819.574 524.259C819.552 524.329 819.514 524.394 819.464 524.447C819.413 524.5 819.35 524.541 819.281 524.566L819.135 524.589H813.84C813.741 524.587 813.646 524.554 813.567 524.495C813.488 524.435 813.43 524.353 813.401 524.259L813.375 524.112V519.174C813.374 519.073 813.404 518.975 813.461 518.893C813.518 518.81 813.6 518.747 813.694 518.712L813.84 518.686L819.139 518.69ZM826.549 518.69L826.695 518.716C826.763 518.742 826.825 518.783 826.875 518.836C826.925 518.89 826.962 518.954 826.984 519.024L827.01 519.174V524.105L826.984 524.259C826.962 524.329 826.924 524.394 826.874 524.447C826.823 524.5 826.76 524.541 826.691 524.566L826.545 524.589H821.25C821.151 524.587 821.056 524.555 820.977 524.495C820.898 524.436 820.84 524.353 820.811 524.259L820.789 524.109V519.17L820.811 519.02C820.832 518.949 820.87 518.884 820.921 518.83C820.971 518.776 821.034 518.734 821.104 518.709L821.25 518.686L826.549 518.69ZM833.869 518.69L834.015 518.716C834.084 518.741 834.147 518.782 834.197 518.836C834.248 518.889 834.286 518.953 834.307 519.024L834.334 519.174V524.105C834.334 524.205 834.304 524.303 834.247 524.386C834.19 524.469 834.109 524.532 834.015 524.566L833.865 524.589H828.574C828.475 524.587 828.379 524.555 828.3 524.495C828.222 524.436 828.164 524.353 828.135 524.259L828.112 524.109V519.17L828.135 519.02C828.156 518.949 828.194 518.884 828.244 518.83C828.295 518.776 828.358 518.734 828.427 518.709L828.577 518.686H833.872L833.869 518.69ZM841.256 518.69L841.402 518.716C841.472 518.741 841.534 518.782 841.585 518.836C841.636 518.889 841.673 518.953 841.695 519.024L841.717 519.174V524.105C841.718 524.205 841.688 524.303 841.631 524.386C841.574 524.469 841.493 524.532 841.399 524.566L841.252 524.589H835.957C835.859 524.587 835.763 524.555 835.684 524.495C835.605 524.436 835.547 524.353 835.519 524.259L835.496 524.109V519.17L835.519 519.02C835.54 518.949 835.577 518.884 835.628 518.83C835.679 518.776 835.742 518.734 835.811 518.709L835.961 518.686H841.252L841.256 518.69ZM819.131 511.595L819.281 511.621C819.349 511.647 819.411 511.687 819.461 511.74C819.511 511.792 819.548 511.856 819.57 511.925L819.596 512.079V517.01C819.597 517.11 819.567 517.208 819.51 517.291C819.453 517.374 819.372 517.437 819.277 517.471L819.131 517.498H813.84C813.74 517.495 813.644 517.461 813.565 517.4C813.487 517.34 813.429 517.256 813.401 517.16L813.375 517.01V512.079C813.375 511.979 813.405 511.882 813.462 511.8C813.519 511.718 813.6 511.656 813.694 511.621L813.84 511.595H819.131ZM826.541 511.595L826.691 511.621C826.759 511.647 826.821 511.687 826.871 511.74C826.921 511.792 826.958 511.856 826.98 511.925L827.006 512.079V517.01C827.007 517.11 826.977 517.208 826.92 517.291C826.863 517.374 826.782 517.437 826.687 517.471L826.541 517.498H821.25C821.15 517.495 821.054 517.461 820.975 517.4C820.897 517.34 820.839 517.256 820.811 517.16L820.789 517.01V512.079L820.811 511.929C820.833 511.858 820.871 511.794 820.921 511.741C820.972 511.687 821.034 511.646 821.104 511.621L821.25 511.595H826.541ZM833.865 511.595C834.067 511.595 834.24 511.734 834.304 511.925L834.33 512.079V517.01C834.331 517.11 834.301 517.208 834.243 517.291C834.186 517.374 834.105 517.437 834.011 517.471L833.861 517.498H828.574C828.474 517.495 828.378 517.461 828.299 517.4C828.22 517.34 828.163 517.256 828.135 517.16L828.112 517.01V512.079L828.135 511.929C828.157 511.858 828.194 511.794 828.245 511.741C828.296 511.687 828.358 511.646 828.427 511.621L828.577 511.595H833.872H833.865ZM833.865 504.5C834.067 504.5 834.24 504.639 834.304 504.83L834.33 504.98V509.915C834.331 510.015 834.301 510.113 834.243 510.196C834.186 510.279 834.105 510.342 834.011 510.376L833.861 510.399H828.574C828.475 510.397 828.379 510.365 828.3 510.305C828.222 510.246 828.164 510.163 828.135 510.069L828.112 509.919V504.98L828.135 504.83C828.157 504.76 828.194 504.695 828.245 504.642C828.296 504.589 828.358 504.548 828.427 504.523L828.574 504.5H833.869H833.865Z" fill="#5D6E7A"/>
</g>
<path d="M599.5 150.5H300.5V449.5H599.5V150.5Z" stroke="#5D6E7A"/>
<path d="M0 449.5H900" stroke="#5D6E7A"/>
<path d="M0 299.5H300" stroke="#5D6E7A"/>
<path d="M900 300.5H600" stroke="#5D6E7A"/>
<path d="M0 150.5H300" stroke="#5D6E7A"/>
<path d="M900 150.5H600" stroke="#5D6E7A"/>
<path d="M300.5 0V150" stroke="#5D6E7A"/>
<path d="M150.5 0V600" stroke="#5D6E7A"/>
<path d="M300.5 450V600" stroke="#5D6E7A"/>
<path d="M450.5 0V150" stroke="#5D6E7A"/>
<path d="M450.5 450V600" stroke="#5D6E7A"/>
<path d="M599.5 0V150" stroke="#5D6E7A"/>
<path d="M750.5 0V150" stroke="#5D6E7A"/>
<path d="M750.5 150V300" stroke="#5D6E7A"/>
<path d="M750.5 300V600" stroke="#5D6E7A"/>
<path d="M599.5 450V600" stroke="#5D6E7A"/>
<path fill-rule="evenodd" clip-rule="evenodd" d="M258 202C258 196.477 253.523 192 248 192H208C202.477 192 198 196.477 198 202V242C198 247.523 202.477 252 208 252H248C253.523 252 258 247.523 258 242V202ZM222.308 241.493C222.308 242.878 221.185 244 219.801 244C218.416 244 217.294 242.878 217.294 241.493V227.772C217.294 225.787 215.685 224.178 213.7 224.178H212.172C211.031 224.178 210.105 223.252 210.105 222.111C210.105 220.969 211.031 220.044 212.172 220.044H227.429C228.571 220.044 229.496 220.969 229.496 222.111C229.496 223.252 228.571 224.178 227.429 224.178H225.902C223.917 224.178 222.308 225.787 222.308 227.772V241.493ZM251.157 236.861C251.157 241.609 247.472 244.614 241.495 244.614C235.768 244.614 232.148 241.875 231.866 237.625C231.857 237.481 231.972 237.359 232.116 237.359H236.514C236.609 237.359 236.688 237.431 236.697 237.525C236.88 239.318 238.822 240.53 241.628 240.53C244.301 240.53 246.144 239.252 246.144 237.409V237.392C246.144 235.816 244.965 234.936 241.993 234.321L239.47 233.807C234.489 232.794 232.348 230.47 232.348 226.834V226.817C232.348 222.368 236.166 219.43 241.478 219.43C247.073 219.43 250.36 222.385 250.676 226.386C250.685 226.502 250.593 226.602 250.476 226.602H246.18C246.063 226.602 245.964 226.517 245.944 226.402C245.662 224.692 244.002 223.497 241.478 223.497C239.005 223.514 237.361 224.642 237.361 226.436V226.452C237.361 228.013 238.524 228.942 241.346 229.524L243.886 230.038C248.949 231.084 251.157 233.109 251.157 236.845V236.861Z" fill="#5D6E7A"/>
<g clip-path="url(#clip1_74_80)">
<path d="M395.671 43.822H360.329C353.974 43.822 348.822 48.9738 348.822 55.3289V90.6713C348.822 97.0264 353.974 102.178 360.329 102.178H395.671C402.026 102.178 407.178 97.0264 407.178 90.6713V55.3289C407.178 48.9738 402.026 43.822 395.671 43.822Z" fill="#5D6E7A" stroke="#5D6E7A" stroke-width="21.9178"/>
<path d="M397.567 62.2561C395.586 58.8608 392.898 56.1727 389.503 54.1913C386.107 52.2098 382.4 51.2192 378.379 51.2192C374.359 51.2192 370.651 52.2101 367.256 54.1913C363.861 56.1726 361.173 58.8608 359.191 62.2561C357.21 65.6513 356.219 69.3589 356.219 73.3788C356.219 78.2075 357.628 82.5497 360.446 86.4064C363.264 90.2633 366.905 92.9322 371.367 94.4133C371.887 94.5097 372.271 94.4419 372.522 94.2115C372.772 93.9809 372.897 93.6921 372.897 93.3462C372.897 93.2885 372.892 92.7694 372.882 91.7881C372.872 90.8069 372.867 89.9509 372.867 89.2205L372.204 89.3354C371.781 89.4129 371.247 89.4457 370.602 89.4364C369.958 89.4274 369.289 89.3599 368.597 89.2344C367.904 89.11 367.26 88.8214 366.664 88.3694C366.068 87.9173 365.644 87.3256 365.394 86.5951L365.106 85.9312C364.914 85.4891 364.611 84.998 364.197 84.4598C363.783 83.921 363.365 83.5558 362.942 83.3635L362.74 83.2188C362.605 83.1227 362.48 83.0068 362.365 82.8723C362.249 82.7378 362.163 82.6032 362.105 82.4683C362.048 82.3334 362.095 82.2228 362.25 82.1359C362.404 82.0491 362.682 82.007 363.086 82.007L363.663 82.0932C364.048 82.1703 364.524 82.4006 365.092 82.7856C365.659 83.1702 366.125 83.6703 366.491 84.2856C366.934 85.0744 367.467 85.6756 368.092 86.0892C368.717 86.5029 369.347 86.7093 369.982 86.7093C370.617 86.7093 371.165 86.6612 371.627 86.5655C372.088 86.4693 372.521 86.3247 372.925 86.1325C373.098 84.8431 373.57 83.8526 374.339 83.1602C373.242 83.045 372.257 82.8715 371.381 82.6408C370.506 82.4097 369.602 82.0348 368.669 81.5149C367.736 80.9958 366.962 80.3511 366.346 79.582C365.731 78.8125 365.226 77.8023 364.832 76.5522C364.437 75.3017 364.24 73.8591 364.24 72.2241C364.24 69.8961 365 67.9151 366.52 66.2799C365.808 64.5297 365.875 62.5677 366.722 60.394C367.28 60.2207 368.107 60.3508 369.203 60.7834C370.3 61.2163 371.103 61.5871 371.613 61.8945C372.123 62.2018 372.531 62.4623 372.839 62.6735C374.628 62.1735 376.475 61.9235 378.379 61.9235C380.283 61.9235 382.13 62.1735 383.92 62.6735L385.016 61.9813C385.766 61.5195 386.651 61.0962 387.67 60.7115C388.69 60.3269 389.469 60.221 390.008 60.3943C390.873 62.5681 390.951 64.53 390.239 66.2802C391.758 67.9154 392.518 69.8969 392.518 72.2244C392.518 73.8594 392.321 75.3065 391.927 76.5667C391.533 77.827 391.023 78.8362 390.398 79.5964C389.773 80.3565 388.993 80.9962 388.061 81.5152C387.128 82.0347 386.223 82.4096 385.348 82.6407C384.473 82.8717 383.487 83.0453 382.391 83.1607C383.391 84.026 383.891 85.3919 383.891 87.2577V93.3454C383.891 93.6913 384.011 93.98 384.252 94.2107C384.492 94.441 384.872 94.5089 385.391 94.4123C389.854 92.9315 393.495 90.2625 396.313 86.4055C399.131 82.5489 400.54 78.2067 400.54 73.378C400.539 69.3586 399.548 65.6513 397.567 62.2561Z" fill="#343434"/>
</g>
<g clip-path="url(#clip2_74_80)">
<path d="M247.448 388.584L226.871 344.887C226.35 343.792 225.271 343.07 224.059 343.007C222.845 342.926 221.686 343.526 221.053 344.566L198.735 380.712C198.042 381.827 198.057 383.241 198.773 384.341L209.684 401.238C210.532 402.541 212.135 403.13 213.625 402.687L245.289 393.321C246.254 393.039 247.049 392.353 247.469 391.44C247.883 390.531 247.875 389.486 247.449 388.583L247.448 388.584ZM242.841 390.459L215.972 398.404C215.152 398.648 214.365 397.937 214.536 397.11L224.135 351.145C224.315 350.285 225.503 350.149 225.878 350.945L243.649 388.682C243.808 389.022 243.809 389.415 243.654 389.757C243.498 390.099 243.2 390.355 242.839 390.459H242.841Z" fill="#5D6E7A"/>
</g>
<path d="M318.92 432V414.48H329.816V417.264H321.872V421.944H329.192V424.728H321.92V432H318.92ZM338.591 432.24C336.911 432.24 335.591 431.776 334.631 430.848C333.671 429.904 333.191 428.624 333.191 427.008V418.8H336.191V426.984C336.191 427.832 336.399 428.488 336.815 428.952C337.231 429.4 337.823 429.624 338.591 429.624C339.343 429.624 339.927 429.4 340.343 428.952C340.775 428.488 340.991 427.832 340.991 426.984V418.8H343.991V427.008C343.991 428.624 343.503 429.904 342.527 430.848C341.551 431.776 340.239 432.24 338.591 432.24ZM354.997 432C354.133 432 353.373 431.824 352.717 431.472C352.077 431.12 351.573 430.624 351.205 429.984C350.837 429.328 350.653 428.576 350.653 427.728V417.192H346.429V414.48H353.653V427.728C353.653 428.208 353.789 428.592 354.061 428.88C354.349 429.152 354.733 429.288 355.213 429.288H359.197V432H354.997ZM369.388 432C368.524 432 367.764 431.824 367.108 431.472C366.468 431.12 365.964 430.624 365.596 429.984C365.228 429.328 365.044 428.576 365.044 427.728V417.192H360.82V414.48H368.044V427.728C368.044 428.208 368.18 428.592 368.452 428.88C368.74 429.152 369.124 429.288 369.604 429.288H373.588V432H369.388ZM396.201 432.24C395.001 432.24 393.961 432.04 393.081 431.64C392.201 431.24 391.521 430.672 391.041 429.936C390.577 429.184 390.337 428.304 390.321 427.296H393.321C393.321 428.016 393.577 428.584 394.089 429C394.617 429.4 395.329 429.6 396.225 429.6C397.089 429.6 397.761 429.4 398.241 429C398.737 428.6 398.985 428.048 398.985 427.344C398.985 426.752 398.809 426.24 398.457 425.808C398.121 425.36 397.633 425.056 396.993 424.896L394.977 424.344C393.601 423.992 392.537 423.36 391.785 422.448C391.049 421.536 390.681 420.432 390.681 419.136C390.681 418.144 390.905 417.28 391.353 416.544C391.801 415.808 392.433 415.24 393.249 414.84C394.081 414.44 395.057 414.24 396.177 414.24C397.873 414.24 399.217 414.68 400.209 415.56C401.201 416.424 401.705 417.592 401.721 419.064H398.721C398.721 418.376 398.497 417.84 398.049 417.456C397.601 417.056 396.969 416.856 396.153 416.856C395.369 416.856 394.761 417.04 394.329 417.408C393.897 417.776 393.681 418.296 393.681 418.968C393.681 419.576 393.841 420.096 394.161 420.528C394.497 420.944 394.977 421.24 395.601 421.416L397.689 421.992C399.081 422.344 400.145 422.976 400.881 423.888C401.617 424.784 401.985 425.896 401.985 427.224C401.985 428.216 401.745 429.096 401.265 429.864C400.785 430.616 400.113 431.2 399.249 431.616C398.385 432.032 397.369 432.24 396.201 432.24ZM411.984 432C410.72 432 409.728 431.648 409.008 430.944C408.304 430.24 407.952 429.272 407.952 428.04V421.512H404.376V418.8H407.952V415.08H410.976V418.8H416.04V421.512H410.976V428.04C410.976 428.872 411.384 429.288 412.2 429.288H415.8V432H411.984ZM423.47 432.24C422.11 432.24 421.038 431.88 420.254 431.16C419.47 430.44 419.078 429.472 419.078 428.256C419.078 426.96 419.51 425.96 420.374 425.256C421.238 424.552 422.462 424.2 424.046 424.2H427.334V423.072C427.334 422.432 427.126 421.936 426.71 421.584C426.294 421.216 425.726 421.032 425.006 421.032C424.35 421.032 423.806 421.176 423.374 421.464C422.942 421.752 422.686 422.144 422.606 422.64H419.678C419.822 421.392 420.382 420.4 421.358 419.664C422.334 418.928 423.582 418.56 425.102 418.56C426.718 418.56 427.99 418.968 428.918 419.784C429.862 420.584 430.334 421.672 430.334 423.048V432H427.43V429.696H426.95L427.43 429.048C427.43 430.024 427.07 430.8 426.35 431.376C425.63 431.952 424.67 432.24 423.47 432.24ZM424.454 429.984C425.302 429.984 425.99 429.768 426.518 429.336C427.062 428.904 427.334 428.344 427.334 427.656V426.048H424.094C423.486 426.048 422.998 426.224 422.63 426.576C422.262 426.928 422.078 427.392 422.078 427.968C422.078 428.592 422.286 429.088 422.702 429.456C423.134 429.808 423.718 429.984 424.454 429.984ZM439.397 432.24C438.277 432.24 437.293 432.032 436.445 431.616C435.613 431.184 434.965 430.584 434.501 429.816C434.037 429.032 433.805 428.112 433.805 427.056V423.744C433.805 422.672 434.037 421.752 434.501 420.984C434.965 420.216 435.613 419.624 436.445 419.208C437.293 418.776 438.277 418.56 439.397 418.56C441.061 418.56 442.389 418.992 443.381 419.856C444.373 420.704 444.893 421.864 444.941 423.336H441.941C441.893 422.648 441.645 422.12 441.197 421.752C440.765 421.368 440.165 421.176 439.397 421.176C438.597 421.176 437.965 421.4 437.501 421.848C437.037 422.28 436.805 422.904 436.805 423.72V427.056C436.805 427.872 437.037 428.504 437.501 428.952C437.965 429.4 438.597 429.624 439.397 429.624C440.165 429.624 440.765 429.44 441.197 429.072C441.645 428.688 441.893 428.152 441.941 427.464H444.941C444.893 428.936 444.373 430.104 443.381 430.968C442.389 431.816 441.061 432.24 439.397 432.24ZM448.436 432V414.48H451.436V423.984H453.524L456.74 418.8H460.1L456.116 425.184L460.172 432H456.74L453.524 426.528H451.436V432H448.436ZM480.985 432V417.264H476.401V414.48H488.593V417.264H484.009V432H480.985ZM491.536 432V414.48H494.536V418.8L494.464 421.32H495.28L494.464 422.016C494.464 420.928 494.776 420.08 495.4 419.472C496.04 418.864 496.912 418.56 498.016 418.56C499.312 418.56 500.344 418.992 501.112 419.856C501.896 420.72 502.288 421.88 502.288 423.336V432H499.288V423.648C499.288 422.848 499.08 422.232 498.664 421.8C498.248 421.368 497.664 421.152 496.912 421.152C496.176 421.152 495.592 421.376 495.16 421.824C494.744 422.272 494.536 422.912 494.536 423.744V432H491.536ZM511.302 432.24C510.182 432.24 509.206 432.024 508.374 431.592C507.542 431.16 506.894 430.56 506.43 429.792C505.982 429.008 505.758 428.096 505.758 427.056V423.744C505.758 422.704 505.982 421.8 506.43 421.032C506.894 420.248 507.542 419.64 508.374 419.208C509.206 418.776 510.182 418.56 511.302 418.56C512.406 418.56 513.366 418.776 514.182 419.208C515.014 419.64 515.654 420.248 516.102 421.032C516.566 421.8 516.798 422.704 516.798 423.744V426.12H508.662V427.056C508.662 427.984 508.886 428.688 509.334 429.168C509.782 429.632 510.446 429.864 511.326 429.864C511.998 429.864 512.542 429.752 512.958 429.528C513.374 429.288 513.638 428.944 513.75 428.496H516.702C516.478 429.632 515.87 430.544 514.878 431.232C513.902 431.904 512.71 432.24 511.302 432.24ZM513.894 424.44V423.72C513.894 422.808 513.678 422.112 513.246 421.632C512.814 421.136 512.166 420.888 511.302 420.888C510.438 420.888 509.782 421.136 509.334 421.632C508.886 422.128 508.662 422.832 508.662 423.744V424.248L514.11 424.2L513.894 424.44ZM520.725 432V418.8H523.557V421.32H524.301L523.413 422.856C523.413 421.432 523.733 420.36 524.373 419.64C525.013 418.92 525.957 418.56 527.205 418.56C528.629 418.56 529.749 419 530.565 419.88C531.381 420.76 531.789 421.976 531.789 423.528V424.488H528.645V423.744C528.645 422.896 528.421 422.24 527.973 421.776C527.541 421.312 526.941 421.08 526.173 421.08C525.389 421.08 524.781 421.312 524.349 421.776C523.933 422.24 523.725 422.896 523.725 423.744V432H520.725ZM538.595 432.24C537.235 432.24 536.163 431.88 535.379 431.16C534.595 430.44 534.203 429.472 534.203 428.256C534.203 426.96 534.635 425.96 535.499 425.256C536.363 424.552 537.587 424.2 539.171 424.2H542.459V423.072C542.459 422.432 542.251 421.936 541.835 421.584C541.419 421.216 540.851 421.032 540.131 421.032C539.475 421.032 538.931 421.176 538.499 421.464C538.067 421.752 537.811 422.144 537.731 422.64H534.803C534.947 421.392 535.507 420.4 536.483 419.664C537.459 418.928 538.707 418.56 540.227 418.56C541.843 418.56 543.115 418.968 544.043 419.784C544.987 420.584 545.459 421.672 545.459 423.048V432H542.555V429.696H542.075L542.555 429.048C542.555 430.024 542.195 430.8 541.475 431.376C540.755 431.952 539.795 432.24 538.595 432.24ZM539.579 429.984C540.427 429.984 541.115 429.768 541.643 429.336C542.187 428.904 542.459 428.344 542.459 427.656V426.048H539.219C538.611 426.048 538.123 426.224 537.755 426.576C537.387 426.928 537.203 427.392 537.203 427.968C537.203 428.592 537.411 429.088 537.827 429.456C538.259 429.808 538.843 429.984 539.579 429.984ZM549.098 436.32V418.8H552.026V421.32H552.698L552.026 422.016C552.026 420.944 552.346 420.104 552.986 419.496C553.626 418.872 554.49 418.56 555.578 418.56C556.906 418.56 557.97 419.016 558.77 419.928C559.57 420.84 559.97 422.064 559.97 423.6V427.176C559.97 428.2 559.786 429.096 559.418 429.864C559.066 430.616 558.562 431.2 557.906 431.616C557.25 432.032 556.474 432.24 555.578 432.24C554.49 432.24 553.626 431.936 552.986 431.328C552.346 430.704 552.026 429.856 552.026 428.784L552.698 429.48H552.002L552.098 432.624V436.32H549.098ZM554.522 429.648C555.29 429.648 555.89 429.424 556.322 428.976C556.754 428.528 556.97 427.888 556.97 427.056V423.744C556.97 422.912 556.754 422.272 556.322 421.824C555.89 421.376 555.29 421.152 554.522 421.152C553.77 421.152 553.178 421.384 552.746 421.848C552.314 422.296 552.098 422.928 552.098 423.744V427.056C552.098 427.872 552.314 428.512 552.746 428.976C553.178 429.424 553.77 429.648 554.522 429.648ZM565.625 436.32L567.473 431.28L562.553 418.8H565.841L568.289 425.544C568.417 425.912 568.545 426.36 568.673 426.888C568.801 427.4 568.897 427.824 568.961 428.16C569.041 427.824 569.145 427.4 569.273 426.888C569.401 426.36 569.529 425.912 569.657 425.544L571.961 418.8H575.129L568.769 436.32H565.625Z" fill="#5D6E7A"/>
</g>
<defs>
<clipPath id="clip0_74_80">
<rect width="900" height="600" fill="white"/>
</clipPath>
<clipPath id="clip1_74_80">
<rect x="348" y="43" width="60" height="60" rx="10" fill="white"/>
</clipPath>
<clipPath id="clip2_74_80">
<rect width="60" height="60" fill="white" transform="translate(193 343)"/>
</clipPath>
</defs>
</svg>
